<svg width="28" height="29" viewBox="0 0 28 29" fill="none" xmlns="http://www.w3.org/2000/svg">
<path d="M8.16667 10.4165L11.599 12.4458C13.6001 13.6289 14.3999 13.6289 16.401 12.4458L19.8333 10.4165" stroke="#616161" stroke-width="1.75" stroke-linecap="round" stroke-linejoin="round"/>
<path d="M2.35172 16.2217C2.428 19.7982 2.46612 21.5864 3.78578 22.911C5.10543 24.2358 6.94205 24.2819 10.6153 24.3742C12.8792 24.4311 15.1208 24.4311 17.3847 24.3742C21.058 24.2819 22.8946 24.2358 24.2142 22.911C25.5339 21.5864 25.5721 19.7982 25.6482 16.2217C25.6729 15.0718 25.6729 13.9285 25.6482 12.7787C25.5721 9.20217 25.5339 7.41394 24.2142 6.08927C22.8946 4.7646 21.058 4.71846 17.3847 4.62616C15.1208 4.56928 12.8792 4.56928 10.6153 4.62615C6.94205 4.71843 5.10543 4.76458 3.78578 6.08926C2.46612 7.41392 2.42799 9.20216 2.35172 12.7785C2.3272 13.9285 2.3272 15.0718 2.35172 16.2217Z" stroke="#616161" stroke-width="1.75" stroke-linejoin="round"/>
</svg>
