<svg width="14" height="14" viewBox="0 0 14 14" fill="none" xmlns="http://www.w3.org/2000/svg">
<path d="M10.9457 8.5465C10.773 8.71384 10.6937 8.95584 10.733 9.19317L11.3257 12.4732C11.3757 12.7512 11.2583 13.0325 11.0257 13.1932C10.7977 13.3598 10.4943 13.3798 10.2457 13.2465L7.29299 11.7065C7.19032 11.6518 7.07632 11.6225 6.95965 11.6192H6.77899C6.71632 11.6285 6.65499 11.6485 6.59899 11.6792L3.64565 13.2265C3.49965 13.2998 3.33432 13.3258 3.17232 13.2998C2.77765 13.2252 2.51432 12.8492 2.57899 12.4525L3.17232 9.1725C3.21165 8.93317 3.13232 8.68984 2.95965 8.51984L0.552319 6.1865C0.350986 5.99117 0.280986 5.69784 0.372986 5.43317C0.462319 5.16917 0.690319 4.9765 0.965653 4.93317L4.27899 4.4525C4.53099 4.4265 4.75232 4.27317 4.86565 4.0465L6.32565 1.05317C6.36032 0.986504 6.40499 0.925171 6.45899 0.873171L6.51899 0.826504C6.55032 0.791837 6.58632 0.763171 6.62632 0.739837L6.69899 0.713171L6.81232 0.666504H7.09299C7.34365 0.692504 7.56432 0.842504 7.67965 1.0665L9.15899 4.0465C9.26565 4.2645 9.47299 4.41584 9.71232 4.4525L13.0257 4.93317C13.3057 4.97317 13.5397 5.1665 13.6323 5.43317C13.7197 5.7005 13.6443 5.99384 13.439 6.1865L10.9457 8.5465Z" fill="#D5D5D5"/>
</svg>
